<mxfile host="app.diagrams.net" agent="Mozilla/5.0 (Macintosh; Intel Mac OS X 10_10_5) AppleWebKit/537.36 (KHTML, like Gecko) Chrome/87.0.4280.88 Safari/537.36" version="27.0.3">
  <diagram name="Страница — 1" id="1lgbH9x4u3ROzhYAGhE-">
    <mxGraphModel dx="639" dy="502" grid="1" gridSize="10" guides="1" tooltips="1" connect="1" arrows="1" fold="1" page="1" pageScale="1" pageWidth="1169" pageHeight="827" background="none" math="0" shadow="0">
      <root>
        <mxCell id="0" />
        <mxCell id="1" parent="0" />
        <mxCell id="H34q3096vW5ZRXHq4TRd-21" value="R=0.119" style="rounded=0;orthogonalLoop=1;jettySize=auto;html=1;strokeColor=default;strokeWidth=0.595;fontSize=12;fontFamily=Times New Roman;" parent="1" edge="1">
          <mxGeometry relative="1" as="geometry">
            <mxPoint x="316.66666666666674" y="200" as="sourcePoint" />
          </mxGeometry>
        </mxCell>
        <mxCell id="H34q3096vW5ZRXHq4TRd-57" value="R=0.486" style="rounded=0;orthogonalLoop=1;jettySize=auto;html=1;fontSize=12;strokeWidth=2.43;" parent="1" edge="1">
          <mxGeometry relative="1" as="geometry">
            <mxPoint x="335" y="40" as="targetPoint" />
          </mxGeometry>
        </mxCell>
        <mxCell id="qwW-FyV9AaIcFxMxt8HV-1" value="R=0.608" style="rounded=0;orthogonalLoop=1;jettySize=auto;html=1;fontFamily=Times New Roman;fontSize=12;strokeWidth=3.04;strokeColor=default;fillOpacity=100;" parent="1" source="qwW-FyV9AaIcFxMxt8HV-2" target="qwW-FyV9AaIcFxMxt8HV-3" edge="1">
          <mxGeometry relative="1" as="geometry" />
        </mxCell>
        <mxCell id="qwW-FyV9AaIcFxMxt8HV-2" value="&lt;span style=&quot;text-align: start; line-height: 19.9733px;&quot;&gt;&lt;font&gt;Демонстративный&lt;/font&gt;&lt;/span&gt;&lt;span style=&quot;text-align: start;&quot;&gt;&lt;/span&gt;" style="rounded=1;whiteSpace=wrap;html=1;fontFamily=Times New Roman;fontSize=12;fillColor=#ffe6cc;strokeColor=#d79b00;fillOpacity=100;" parent="1" vertex="1">
          <mxGeometry x="40" y="40" width="120" height="40" as="geometry" />
        </mxCell>
        <mxCell id="qwW-FyV9AaIcFxMxt8HV-3" value="Человек-Человек" style="whiteSpace=wrap;html=1;rounded=1;fontFamily=Times New Roman;fontSize=12;fillColor=#dae8fc;strokeColor=#6c8ebf;fillOpacity=100;" parent="1" vertex="1">
          <mxGeometry x="200" y="120" width="120" height="40" as="geometry" />
        </mxCell>
        <mxCell id="qwW-FyV9AaIcFxMxt8HV-4" value="&lt;span&gt;Гипертимный&lt;/span&gt;" style="rounded=1;whiteSpace=wrap;html=1;fillColor=#ffe6cc;strokeColor=#d79b00;fontFamily=Times New Roman;fontSize=12;fillOpacity=100;" parent="1" vertex="1">
          <mxGeometry x="360" y="40" width="120" height="40" as="geometry" />
        </mxCell>
        <mxCell id="qwW-FyV9AaIcFxMxt8HV-5" value="R=0.602" style="endArrow=classic;html=1;rounded=0;strokeWidth=3.01;fontFamily=Times New Roman;fontSize=12;strokeColor=default;fillOpacity=100;" parent="1" source="qwW-FyV9AaIcFxMxt8HV-4" target="qwW-FyV9AaIcFxMxt8HV-3" edge="1">
          <mxGeometry width="50" height="50" relative="1" as="geometry">
            <mxPoint x="200" y="230" as="sourcePoint" />
            <mxPoint x="250" y="180" as="targetPoint" />
          </mxGeometry>
        </mxCell>
        <mxCell id="qwW-FyV9AaIcFxMxt8HV-6" value="&lt;div&gt;&lt;br&gt;Возбудимый&lt;div&gt;&lt;br style=&quot;font-family: Helvetica;&quot;&gt;&lt;/div&gt;&lt;/div&gt;" style="rounded=1;whiteSpace=wrap;html=1;fillColor=#ffe6cc;strokeColor=#d79b00;fontSize=12;fontFamily=Times New Roman;fillOpacity=100;" parent="1" vertex="1">
          <mxGeometry x="200" y="40" width="120" height="40" as="geometry" />
        </mxCell>
        <mxCell id="qwW-FyV9AaIcFxMxt8HV-8" value="&lt;div&gt;&lt;span style=&quot;background-color: transparent;&quot;&gt;Н&lt;/span&gt;&lt;span style=&quot;background-color: transparent;&quot;&gt;аправленность на задачу&lt;/span&gt;&lt;br&gt;&lt;/div&gt;" style="rounded=1;whiteSpace=wrap;html=1;fillColor=#f8cecc;strokeColor=#b85450;fontSize=12;fontFamily=Times New Roman;fillOpacity=100;" parent="1" vertex="1">
          <mxGeometry x="200" y="280" width="120" height="40" as="geometry" />
        </mxCell>
        <mxCell id="qwW-FyV9AaIcFxMxt8HV-9" value="R=0.207" style="rounded=0;orthogonalLoop=1;jettySize=auto;html=1;fontSize=12;strokeWidth=1.035;fillOpacity=100;" parent="1" source="qwW-FyV9AaIcFxMxt8HV-10" target="qwW-FyV9AaIcFxMxt8HV-8" edge="1">
          <mxGeometry relative="1" as="geometry" />
        </mxCell>
        <mxCell id="qwW-FyV9AaIcFxMxt8HV-10" value="&lt;span&gt;Сенситивный&lt;/span&gt;" style="rounded=1;whiteSpace=wrap;html=1;fillColor=#ffe6cc;strokeColor=#d79b00;fontSize=12;fontFamily=Times New Roman;fillOpacity=100;" parent="1" vertex="1">
          <mxGeometry x="40" y="200" width="120" height="40" as="geometry" />
        </mxCell>
        <mxCell id="qwW-FyV9AaIcFxMxt8HV-11" value="R=0.607" style="rounded=0;orthogonalLoop=1;jettySize=auto;html=1;fontSize=12;strokeWidth=3.035;fillOpacity=100;" parent="1" source="qwW-FyV9AaIcFxMxt8HV-12" target="qwW-FyV9AaIcFxMxt8HV-8" edge="1">
          <mxGeometry relative="1" as="geometry" />
        </mxCell>
        <mxCell id="qwW-FyV9AaIcFxMxt8HV-12" value="&lt;br&gt;&lt;span style=&quot;font-family: &amp;quot;Times New Roman&amp;quot;;&quot;&gt;Тревожно-педантичный&lt;/span&gt;&lt;div&gt;&lt;br&gt;&lt;/div&gt;" style="rounded=1;whiteSpace=wrap;html=1;fillColor=#ffe6cc;strokeColor=#d79b00;fontSize=12;fillOpacity=100;" parent="1" vertex="1">
          <mxGeometry x="360" y="200" width="120" height="40" as="geometry" />
        </mxCell>
        <mxCell id="qwW-FyV9AaIcFxMxt8HV-13" value="R=0.328" style="rounded=0;orthogonalLoop=1;jettySize=auto;html=1;fontSize=12;strokeWidth=1.64;fillOpacity=100;" parent="1" source="qwW-FyV9AaIcFxMxt8HV-14" target="qwW-FyV9AaIcFxMxt8HV-8" edge="1">
          <mxGeometry relative="1" as="geometry" />
        </mxCell>
        <mxCell id="qwW-FyV9AaIcFxMxt8HV-14" value="&lt;span style=&quot;text-align: start; line-height: 19.9733px; font-family: &amp;quot;Times New Roman&amp;quot;;&quot;&gt;Интровертированный&lt;/span&gt;&lt;span style=&quot;text-align: start;&quot;&gt;&lt;/span&gt;" style="rounded=1;whiteSpace=wrap;html=1;fillColor=#ffe6cc;strokeColor=#d79b00;fontSize=12;fillOpacity=100;" parent="1" vertex="1">
          <mxGeometry x="200" y="200" width="120" height="40" as="geometry" />
        </mxCell>
        <mxCell id="qwW-FyV9AaIcFxMxt8HV-15" value="R=0.980" style="rounded=0;orthogonalLoop=1;jettySize=auto;html=1;fontSize=12;strokeWidth=4.9;fillOpacity=100;" parent="1" source="qwW-FyV9AaIcFxMxt8HV-16" target="qwW-FyV9AaIcFxMxt8HV-17" edge="1">
          <mxGeometry relative="1" as="geometry" />
        </mxCell>
        <mxCell id="qwW-FyV9AaIcFxMxt8HV-16" value="&lt;br&gt;&lt;span style=&quot;font-family: &amp;quot;Times New Roman&amp;quot;;&quot;&gt;Возбудимый&lt;/span&gt;&lt;div&gt;&lt;br&gt;&lt;/div&gt;" style="rounded=1;whiteSpace=wrap;html=1;fillColor=#ffe6cc;strokeColor=#d79b00;fontSize=12;fillOpacity=100;" parent="1" vertex="1">
          <mxGeometry x="560" y="40" width="120" height="40" as="geometry" />
        </mxCell>
        <mxCell id="qwW-FyV9AaIcFxMxt8HV-17" value="&lt;br&gt;&lt;span style=&quot;font-family: &amp;quot;Times New Roman&amp;quot;;&quot;&gt;Социальный&lt;/span&gt;&lt;div&gt;&lt;br&gt;&lt;/div&gt;" style="rounded=1;whiteSpace=wrap;html=1;fillColor=#d5e8d4;strokeColor=#82b366;fontSize=12;fillOpacity=100;" parent="1" vertex="1">
          <mxGeometry x="560" y="200" width="120" height="40" as="geometry" />
        </mxCell>
        <mxCell id="2lSzlNsTMZILJbVsT5SB-1" value="R=0.486" style="rounded=0;orthogonalLoop=1;jettySize=auto;html=1;fontSize=12;strokeWidth=2.43;" edge="1" parent="1" source="qwW-FyV9AaIcFxMxt8HV-6" target="qwW-FyV9AaIcFxMxt8HV-3">
          <mxGeometry relative="1" as="geometry">
            <mxPoint x="475" y="160" as="sourcePoint" />
            <mxPoint x="325" y="40" as="targetPoint" />
          </mxGeometry>
        </mxCell>
      </root>
    </mxGraphModel>
  </diagram>
</mxfile>
